<svg width="962" height="201" viewBox="0 0 962 201" fill="none" xmlns="http://www.w3.org/2000/svg">
<path d="M101.175 201C96.9492 201 92.7125 200.736 88.4836 200.202L89.6865 190.738C107.481 192.996 125.431 189.972 141.59 182.026C165.313 170.36 182.797 149.035 189.56 123.524L198.815 125.958C191.345 154.139 172.034 177.69 145.828 190.576C131.818 197.47 116.587 201 101.175 201ZM101.183 188.117C94.4524 188.12 87.7016 187.348 81.0372 185.795C58.1169 180.454 38.6545 166.538 26.238 146.612C13.8215 126.687 9.93344 103.137 15.2929 80.2964L24.6127 82.4697C19.8358 102.826 23.3015 123.819 34.3691 141.579C45.4382 159.343 62.7855 171.745 83.2152 176.505C98.3954 180.044 114.094 179.041 128.624 173.607L131.986 182.538C122.065 186.248 111.652 188.117 101.183 188.117ZM50.4883 187.45C33.1945 177.499 19.3616 162.768 10.4893 144.855C-1.4576 120.738 -3.26346 93.4273 5.40152 67.9568C14.0696 42.4864 32.1722 21.9027 56.3754 9.99818L60.6137 18.5532C38.7016 29.3287 22.3138 47.9621 14.4685 71.019C6.62165 94.079 8.25792 118.8 19.0742 140.632C27.108 156.851 39.6265 170.183 55.2762 179.19L50.4883 187.45ZM101.225 175.206C75.5851 175.209 50.5684 162.161 36.5094 138.67C15.2709 103.179 26.9682 57.0871 62.5845 35.924C70.5585 31.188 79.1999 27.994 88.2653 26.4315L89.8953 35.8298C81.9904 37.1913 74.4497 39.9802 67.4854 44.1164C36.4042 62.5832 26.1956 102.807 44.73 133.78C63.2628 164.756 103.629 174.923 134.714 156.455C145.897 149.808 154.757 140.132 160.333 128.466L168.975 132.57C162.584 145.94 152.431 157.031 139.616 164.646C127.58 171.803 114.318 175.206 101.225 175.206ZM161.651 164.099L155.082 157.163C166.283 146.631 174.067 133.125 177.591 118.108C181.441 101.701 179.957 84.8723 173.302 69.4408L182.096 65.6752C189.566 82.991 191.231 101.872 186.912 120.281C182.958 137.126 174.223 152.279 161.651 164.099ZM101.103 162.336C66.7662 162.336 38.8319 134.502 38.8319 100.288C38.8319 66.074 66.7662 38.2387 101.103 38.2387C113.367 38.2387 125.235 41.7892 135.423 48.5085L130.141 56.4637C121.523 50.7823 111.482 47.7768 101.103 47.7768C72.0456 47.7768 48.4045 71.333 48.4045 100.286C48.4045 129.24 72.0456 152.796 101.103 152.796C130.16 152.796 153.799 129.241 153.799 100.286C153.799 89.8658 150.743 79.797 144.965 71.1744L152.926 65.8777C159.76 76.0754 163.372 87.9736 163.372 100.288C163.372 134.504 135.438 162.336 101.103 162.336ZM101.103 148.016C74.69 148.016 53.2034 126.606 53.2034 100.29C53.2034 73.9727 74.69 52.5615 101.103 52.5615C127.514 52.5615 149 73.9727 149 100.29C149 126.606 127.512 148.016 101.103 148.016ZM101.103 62.098C79.9694 62.098 62.776 79.2301 62.776 100.288C62.776 121.346 79.9694 138.476 101.103 138.476C122.234 138.476 139.428 121.346 139.428 100.288C139.428 79.2301 122.234 62.098 101.103 62.098ZM176.234 103.735L166.671 103.287C167.274 90.4798 164.093 77.8608 157.471 66.7948C148.096 51.1278 132.435 40.0021 114.507 36.2695L116.463 26.9324C137.005 31.2084 154.949 43.9578 165.691 61.9111C173.28 74.5883 176.925 89.0524 176.234 103.735ZM191.539 86.419C190.121 77.2531 187.291 68.3463 183.128 59.9435C168.932 31.2838 141.364 12.4259 109.384 9.49725L110.261 0C145.583 3.23327 176.032 24.0635 191.714 55.721C196.309 64.9968 199.432 74.8364 201 84.9649L191.539 86.419ZM38.0687 53.5429L30.393 47.8459C51.3646 19.7985 86.9965 6.82458 121.167 14.7845C135.726 18.1764 149.244 25.2302 160.256 35.1797L153.824 42.2461C144.015 33.3801 131.969 27.0973 118.987 24.0713C88.526 16.9766 56.7617 28.5436 38.0687 53.5429Z" fill="white"/>
<path d="M326.793 71.7273C326.111 65.9697 323.346 61.5 318.497 58.3182C313.649 55.1364 307.702 53.5455 300.657 53.5455C295.505 53.5455 290.997 54.3788 287.134 56.0455C283.308 57.7121 280.316 60.0038 278.157 62.9205C276.035 65.8371 274.975 69.1515 274.975 72.8636C274.975 75.9697 275.713 78.6401 277.191 80.875C278.706 83.072 280.638 84.9091 282.986 86.3864C285.335 87.8258 287.797 89.0189 290.372 89.9659C292.948 90.875 295.316 91.6136 297.475 92.1818L309.293 95.3636C312.323 96.1591 315.694 97.2576 319.407 98.6591C323.157 100.061 326.736 101.973 330.145 104.398C333.592 106.784 336.433 109.852 338.668 113.602C340.903 117.352 342.02 121.955 342.02 127.409C342.02 133.697 340.372 139.379 337.077 144.455C333.819 149.53 329.047 153.564 322.759 156.557C316.509 159.549 308.914 161.045 299.975 161.045C291.641 161.045 284.425 159.701 278.327 157.011C272.266 154.322 267.494 150.572 264.009 145.761C260.562 140.951 258.611 135.364 258.157 129H272.702C273.081 133.394 274.558 137.03 277.134 139.909C279.747 142.75 283.043 144.871 287.02 146.273C291.035 147.636 295.353 148.318 299.975 148.318C305.353 148.318 310.183 147.447 314.463 145.705C318.744 143.924 322.134 141.462 324.634 138.318C327.134 135.136 328.384 131.424 328.384 127.182C328.384 123.318 327.304 120.174 325.145 117.75C322.986 115.326 320.145 113.356 316.622 111.841C313.1 110.326 309.293 109 305.202 107.864L290.884 103.773C281.793 101.159 274.596 97.428 269.293 92.5795C263.99 87.7311 261.338 81.3864 261.338 73.5455C261.338 67.0303 263.1 61.3485 266.622 56.5C270.183 51.6136 274.956 47.8258 280.941 45.1364C286.963 42.4091 293.687 41.0455 301.111 41.0455C308.611 41.0455 315.278 42.3901 321.111 45.0795C326.944 47.7311 331.566 51.3674 334.975 55.9886C338.422 60.6098 340.24 65.8561 340.429 71.7273H326.793ZM394.924 71.7273V83.0909H349.697V71.7273H394.924ZM362.879 50.8182H376.288V134C376.288 137.788 376.837 140.629 377.935 142.523C379.072 144.379 380.511 145.629 382.254 146.273C384.034 146.879 385.909 147.182 387.879 147.182C389.356 147.182 390.568 147.106 391.515 146.955C392.462 146.765 393.22 146.614 393.788 146.5L396.515 158.545C395.606 158.886 394.337 159.227 392.708 159.568C391.079 159.947 389.015 160.136 386.515 160.136C382.727 160.136 379.015 159.322 375.379 157.693C371.78 156.064 368.788 153.583 366.401 150.25C364.053 146.917 362.879 142.712 362.879 137.636V50.8182ZM444.348 160.818C435.939 160.818 428.685 158.962 422.587 155.25C416.526 151.5 411.848 146.273 408.553 139.568C405.295 132.826 403.666 124.985 403.666 116.045C403.666 107.106 405.295 99.2273 408.553 92.4091C411.848 85.553 416.431 80.2121 422.303 76.3864C428.212 72.5227 435.106 70.5909 442.984 70.5909C447.53 70.5909 452.018 71.3485 456.45 72.8636C460.882 74.3788 464.916 76.8409 468.553 80.25C472.189 83.6212 475.087 88.0909 477.246 93.6591C479.405 99.2273 480.484 106.083 480.484 114.227V119.909H413.212V108.318H466.848C466.848 103.394 465.863 99 463.893 95.1364C461.962 91.2727 459.196 88.2235 455.598 85.9886C452.037 83.7538 447.833 82.6364 442.984 82.6364C437.643 82.6364 433.022 83.9621 429.121 86.6136C425.257 89.2273 422.284 92.6364 420.2 96.8409C418.117 101.045 417.075 105.553 417.075 110.364V118.091C417.075 124.682 418.212 130.269 420.484 134.852C422.795 139.398 425.996 142.864 430.087 145.25C434.178 147.598 438.931 148.773 444.348 148.773C447.871 148.773 451.053 148.28 453.893 147.295C456.772 146.273 459.253 144.758 461.337 142.75C463.42 140.705 465.03 138.167 466.166 135.136L479.121 138.773C477.757 143.167 475.465 147.03 472.246 150.364C469.026 153.659 465.049 156.235 460.314 158.091C455.579 159.909 450.257 160.818 444.348 160.818ZM494.482 159V71.7273H507.437V84.9091H508.346C509.937 80.5909 512.815 77.0871 516.982 74.3977C521.149 71.7083 525.846 70.3636 531.073 70.3636C532.058 70.3636 533.289 70.3826 534.766 70.4205C536.243 70.4583 537.361 70.5152 538.118 70.5909V84.2273C537.664 84.1136 536.622 83.9432 534.993 83.7159C533.403 83.4508 531.717 83.3182 529.937 83.3182C525.694 83.3182 521.906 84.2083 518.573 85.9886C515.278 87.7311 512.664 90.1553 510.732 93.2614C508.838 96.3295 507.891 99.8333 507.891 103.773V159H494.482ZM581.548 160.818C573.139 160.818 565.885 158.962 559.787 155.25C553.726 151.5 549.048 146.273 545.753 139.568C542.495 132.826 540.866 124.985 540.866 116.045C540.866 107.106 542.495 99.2273 545.753 92.4091C549.048 85.553 553.631 80.2121 559.503 76.3864C565.412 72.5227 572.306 70.5909 580.184 70.5909C584.73 70.5909 589.218 71.3485 593.65 72.8636C598.082 74.3788 602.116 76.8409 605.753 80.25C609.389 83.6212 612.287 88.0909 614.446 93.6591C616.605 99.2273 617.684 106.083 617.684 114.227V119.909H550.412V108.318H604.048C604.048 103.394 603.063 99 601.093 95.1364C599.162 91.2727 596.396 88.2235 592.798 85.9886C589.237 83.7538 585.033 82.6364 580.184 82.6364C574.843 82.6364 570.222 83.9621 566.321 86.6136C562.457 89.2273 559.484 92.6364 557.4 96.8409C555.317 101.045 554.275 105.553 554.275 110.364V118.091C554.275 124.682 555.412 130.269 557.684 134.852C559.995 139.398 563.196 142.864 567.287 145.25C571.378 147.598 576.131 148.773 581.548 148.773C585.071 148.773 588.253 148.28 591.093 147.295C593.972 146.273 596.453 144.758 598.537 142.75C600.62 140.705 602.23 138.167 603.366 135.136L616.321 138.773C614.957 143.167 612.665 147.03 609.446 150.364C606.226 153.659 602.249 156.235 597.514 158.091C592.779 159.909 587.457 160.818 581.548 160.818ZM667.137 160.818C659.258 160.818 652.345 158.943 646.398 155.193C640.489 151.443 635.868 146.197 632.534 139.455C629.239 132.712 627.591 124.833 627.591 115.818C627.591 106.727 629.239 98.7917 632.534 92.0114C635.868 85.2311 640.489 79.9659 646.398 76.2159C652.345 72.4659 659.258 70.5909 667.137 70.5909C675.015 70.5909 681.909 72.4659 687.818 76.2159C693.765 79.9659 698.387 85.2311 701.682 92.0114C705.015 98.7917 706.682 106.727 706.682 115.818C706.682 124.833 705.015 132.712 701.682 139.455C698.387 146.197 693.765 151.443 687.818 155.193C681.909 158.943 675.015 160.818 667.137 160.818ZM667.137 148.773C673.121 148.773 678.046 147.239 681.909 144.17C685.773 141.102 688.633 137.068 690.489 132.068C692.345 127.068 693.273 121.652 693.273 115.818C693.273 109.985 692.345 104.549 690.489 99.5114C688.633 94.4735 685.773 90.4015 681.909 87.2955C678.046 84.1894 673.121 82.6364 667.137 82.6364C661.152 82.6364 656.228 84.1894 652.364 87.2955C648.5 90.4015 645.64 94.4735 643.784 99.5114C641.928 104.549 641 109.985 641 115.818C641 121.652 641.928 127.068 643.784 132.068C645.64 137.068 648.5 141.102 652.364 144.17C656.228 147.239 661.152 148.773 667.137 148.773ZM734.16 42.6364V159H720.751V42.6364H734.16ZM807.32 123.318V71.7273H820.729V159H807.32V144.227H806.411C804.365 148.659 801.183 152.428 796.865 155.534C792.547 158.602 787.092 160.136 780.501 160.136C775.047 160.136 770.198 158.943 765.956 156.557C761.714 154.133 758.38 150.496 755.956 145.648C753.532 140.761 752.32 134.606 752.32 127.182V71.7273H765.729V126.273C765.729 132.636 767.509 137.712 771.07 141.5C774.668 145.288 779.251 147.182 784.82 147.182C788.153 147.182 791.543 146.33 794.99 144.625C798.475 142.92 801.392 140.307 803.74 136.784C806.126 133.261 807.32 128.773 807.32 123.318ZM900.707 91.2727L888.661 94.6818C887.903 92.6742 886.786 90.7235 885.309 88.8295C883.869 86.8977 881.9 85.3068 879.4 84.0568C876.9 82.8068 873.699 82.1818 869.797 82.1818C864.457 82.1818 860.006 83.4129 856.445 85.875C852.922 88.2992 851.161 91.3864 851.161 95.1364C851.161 98.4697 852.373 101.102 854.797 103.034C857.222 104.966 861.01 106.576 866.161 107.864L879.116 111.045C886.919 112.939 892.733 115.837 896.559 119.739C900.385 123.602 902.297 128.583 902.297 134.682C902.297 139.682 900.858 144.152 897.979 148.091C895.138 152.03 891.161 155.136 886.047 157.409C880.934 159.682 874.987 160.818 868.207 160.818C859.305 160.818 851.938 158.886 846.104 155.023C840.271 151.159 836.578 145.515 835.025 138.091L847.752 134.909C848.964 139.606 851.256 143.129 854.627 145.477C858.036 147.826 862.487 149 867.979 149C874.229 149 879.191 147.674 882.866 145.023C886.578 142.333 888.434 139.114 888.434 135.364C888.434 132.333 887.373 129.795 885.252 127.75C883.131 125.667 879.873 124.114 875.479 123.091L860.934 119.682C852.941 117.788 847.07 114.852 843.32 110.875C839.608 106.86 837.752 101.841 837.752 95.8182C837.752 90.8939 839.135 86.5379 841.9 82.75C844.703 78.9621 848.51 75.9886 853.32 73.8295C858.169 71.6705 863.661 70.5909 869.797 70.5909C878.434 70.5909 885.214 72.4848 890.138 76.2727C895.1 80.0606 898.623 85.0606 900.707 91.2727ZM954.037 71.7273V83.0909H908.809V71.7273H954.037ZM921.991 50.8182H935.4V134C935.4 137.788 935.95 140.629 937.048 142.523C938.184 144.379 939.624 145.629 941.366 146.273C943.147 146.879 945.022 147.182 946.991 147.182C948.468 147.182 949.681 147.106 950.628 146.955C951.575 146.765 952.332 146.614 952.9 146.5L955.628 158.545C954.718 158.886 953.45 159.227 951.821 159.568C950.192 159.947 948.128 160.136 945.628 160.136C941.84 160.136 938.128 159.322 934.491 157.693C930.893 156.064 927.9 153.583 925.514 150.25C923.165 146.917 921.991 142.712 921.991 137.636V50.8182Z" fill="white"/>
</svg>
